<svg width="48" height="48" viewBox="0 0 48 48" fill="none" xmlns="http://www.w3.org/2000/svg">
<g filter="url(#filter0_d_579_379)">
<path d="M4 20C4 8.95431 12.9543 0 24 0C35.0457 0 44 8.95431 44 20C44 31.0457 35.0457 40 24 40C12.9543 40 4 31.0457 4 20Z" fill="#5BA7BA"/>
<path fill-rule="evenodd" clip-rule="evenodd" d="M28.2922 23.4638C30.574 20.7138 30.4263 16.6273 27.8493 14.0503C25.1156 11.3166 20.6834 11.3166 17.9498 14.0503C15.2161 16.7839 15.2161 21.2161 17.9498 23.9497C20.3586 26.3586 24.0862 26.6448 26.8085 24.8085L30.2426 28.2426C30.6332 28.6332 31.2663 28.6332 31.6569 28.2426C32.0474 27.8521 32.0474 27.219 31.6569 26.8284L28.2922 23.4638ZM26.435 15.4645C28.3877 17.4171 28.3877 20.5829 26.435 22.5355C24.4824 24.4882 21.3166 24.4882 19.364 22.5355C17.4114 20.5829 17.4114 17.4171 19.364 15.4645C21.3166 13.5118 24.4824 13.5118 26.435 15.4645Z" fill="white"/>
</g>
<defs>
<filter id="filter0_d_579_379" x="0" y="0" width="48" height="48" filterUnits="userSpaceOnUse" color-interpolation-filters="sRGB">
<feFlood flood-opacity="0" result="BackgroundImageFix"/>
<feColorMatrix in="SourceAlpha" type="matrix" values="0 0 0 0 0 0 0 0 0 0 0 0 0 0 0 0 0 0 127 0" result="hardAlpha"/>
<feOffset dy="4"/>
<feGaussianBlur stdDeviation="2"/>
<feComposite in2="hardAlpha" operator="out"/>
<feColorMatrix type="matrix" values="0 0 0 0 0 0 0 0 0 0 0 0 0 0 0 0 0 0 0.25 0"/>
<feBlend mode="normal" in2="BackgroundImageFix" result="effect1_dropShadow_579_379"/>
<feBlend mode="normal" in="SourceGraphic" in2="effect1_dropShadow_579_379" result="shape"/>
</filter>
</defs>
</svg>
